<svg xmlns="http://www.w3.org/2000/svg" xml:space="preserve" id="Layer_1" width="131" height="48" x="0" y="0" aria-labelledby="Covered California logo" class="d-none d-lg-block" style="enable-background:new 0 0 108.1 40" version="1.1" viewBox="0 0 108.1 40">
  <style>
    .st0{fill:#fff}
  </style>
  <path d="M47.5 35.6v.8h-1.3V40h-.9v-3.6H44v-.8h3.5zM50.9 35.6h1.3v4.3h-.8V36.3l-.8 3.6h-.9l-.9-3.6V39.9H48v-4.3h1.3l.8 3.4.8-3.4z" class="st0"/>
  <path d="M-16.2-16.4h140.8v72.2H-16.2z" style="fill:none"/>
  <path d="M22.8 0C10.2 0 0 10.5 0 23.3c0 6 2.2 11.7 6.3 16.1l2.2-2.3c-3.3-3.7-5.1-8.5-5.1-13.6 0-11 8.7-20 19.3-20s19.3 9 19.3 20c0 5-1.8 9.8-5 13.5l2.3 2.4c4.1-4.4 6.3-10.1 6.3-16.1C45.6 10.5 35.4 0 22.8 0z" class="st0"/>
  <path d="M22.7 4.6c-10 0-18.2 8.5-18.2 19 0 4.8 1.7 9.3 4.8 12.8l1.7-1.7c.6-.6.7-1.7.2-2.4-.1-.2-3.1-4.8-3.1-8.9v-.6c.3-8.2 6.7-14.5 14.7-14.5 7.9 0 14.4 6.3 14.7 14.4v.6c-.2 4.2-3 8.7-3.1 8.8-.5.7-.4 1.9.2 2.5l1.6 1.6c3-3.5 4.7-8 4.7-12.7 0-10.4-8.2-18.9-18.2-18.9z" class="st0"/>
  <path d="M15.2 21.5c-1.2 0-2.2-1-2.2-2.2s1-2.2 2.2-2.2c1.2 0 2.2 1 2.2 2.2s-1 2.2-2.2 2.2zm5 6c-1.2 0-2.2-1-2.2-2.2s1-2.2 2.2-2.2 2.2 1 2.2 2.2c0 1.2-1 2.2-2.2 2.2zm10.2-8.2c1.2 0 2.2 1 2.2 2.2s-1 2.2-2.2 2.2-2.2-1-2.2-2.2c0-1.3 1-2.2 2.2-2.2zm-5.2-6.6c1.2 0 2.2 1 2.2 2.2 0 1.2-1 2.2-2.2 2.2s-2.2-1-2.2-2.2c0-1.2 1-2.2 2.2-2.2z" class="st0"/>
  <circle cx="15.2" cy="19.3" r="2.2" class="st0"/>
  <path d="M16.8 22.3h-.2c-.9.4-2 .4-2.9 0h-.2c-.1 0-.1.1-.1.1v9.3c1 1 2.1 1.9 3.4 2.6v-12z" class="st0"/>
  <circle cx="20.2" cy="25.3" r="2.2" class="st0"/>
  <path d="M21.8 28.3h-.2c-.9.4-2 .4-2.9 0h-.2c-.1 0-.1.1-.1.1V35c1.1.4 2.2.6 3.4.7v-7.4c.1.1 0 0 0 0z" class="st0"/>
  <circle cx="30.4" cy="21.5" r="2.2" class="st0"/>
  <path d="M32 24.5h-.2c-.9.4-2 .4-2.9 0h-.2c.1 0 .1 0 .1.1v9.7c1.3-.7 2.4-1.6 3.4-2.6v-7.1c-.1-.1-.1-.1-.2-.1z" class="st0"/>
  <circle cx="25.2" cy="15" r="2.2" class="st0"/>
  <path d="M26.8 17.9h-.2c-.9.4-2 .4-2.9 0h-.2l-.1.1v17.7c1.2-.1 2.3-.3 3.4-.7V17.9c.1.1.1.1 0 0zM62.6 13.3c-2.2 0-3.8 1.6-3.8 3.8 0 2.1 1.6 3.8 3.8 3.8 2.2 0 3.8-1.6 3.8-3.8 0-2.2-1.6-3.8-3.8-3.8zm0 5.6c-1 0-1.7-.8-1.7-1.9s.7-1.9 1.7-1.9 1.7.7 1.7 1.9c-.1 1.1-.7 1.9-1.7 1.9zM71.7 18.2 70 13.4h-2.2l2.7 7.3h2.4l2.7-7.3h-2.2zM79.7 18h2.6v-1.9h-2.6v-.8h2.9v-1.9h-5v7.3h5v-1.9h-2.9zM90.8 15.9c0-1.6-1.1-2.6-3.1-2.6-.8 0-1.7.1-2.2.2h-.1v7.2h2.1v-2.2h.2l1.5 2.2h2.5L89.8 18c.6-.5 1-1.3 1-2.1zm-2.1 0c0 .3-.1.8-1.1.8h-.3v-1.6h.3c.7 0 1.1.3 1.1.8zM95.6 18h2.6v-1.9h-2.6v-.8h2.9v-1.9h-5v7.3h5v-1.9h-2.9zM103.7 13.3c-.9 0-1.8.1-2.4.2h-.1v7.1h.1c.7.2 1.9.2 2.3.2 2.6 0 4.1-1.4 4.1-3.8 0-2.3-1.5-3.7-4-3.7zm.1 5.6h-.6v-3.7h.5c.5 0 1.8.2 1.8 1.8.1 1.2-.5 1.9-1.7 1.9zM54.4 18.9c-1 0-1.7-.7-1.7-1.9 0-1.1.6-1.9 1.6-1.9.7 0 1.3.2 1.8.7l.3.3v-2.4h-.1c-.5-.3-1.2-.5-2-.5-2.2 0-3.7 1.5-3.7 3.8 0 2.2 1.5 3.8 3.7 3.8.9 0 1.5-.2 2.1-.5h.1v-2.2l-.3.2c-.5.3-.9.6-1.8.6zM55.3 27.8c-.5.3-.9.5-1.5.5-.8 0-1.3-.6-1.3-1.4 0-.9.5-1.4 1.2-1.4.5 0 1 .2 1.3.5h.1l.1-.1v-1.3s0-.1-.1-.1c-.4-.2-.9-.3-1.5-.3-1.7 0-2.8 1.1-2.8 2.8s1.1 2.8 2.8 2.8c.6 0 1.1-.1 1.6-.4v-.1l.1-1.5c.1.1 0 0 0 0zM60.6 24.3c0-.1 0-.1 0 0l-1.7-.1s-.1 0-.1.1l-2 5.2v.1h1.5s.1 0 .1-.1l.3-.9h2l.3.9.1.1h1.4c.1 0 .1 0 .1-.1v-.1l-2-5.1zm-.4 3.1h-1l.5-1.5.5 1.5zM67.7 28.3h-1.9v-4c0-.1 0-.1-.1-.1h-1.3c-.1 0-.1 0-.1.1v5.2c0 .1 0 .1.1.1h3.3c.1 0 .1 0 .1-.1v-1.1c0-.1-.1-.1-.1-.1zM71 24.2h-1.3c-.1 0-.1 0-.1.1v5.2c0 .1 0 .1.1.1H71c.1 0 .1 0 .1-.1l-.1-5.3c.1.1.1 0 0 0zM76.6 24.2h-3.2c-.1 0-.1 0-.1.1v5.2c0 .1 0 .1.1.1h1.3c.1 0 .1 0 .1-.1v-1.7h1.6c.1 0 .1 0 .1-.1v-1.1c0-.1 0-.1-.1-.1h-1.6v-.9h1.8c.1 0 .1 0 .1-.1v-1.1c0-.1-.1-.2-.1-.2zM81.1 24.1c-1.6 0-2.8 1.2-2.8 2.8s1.2 2.8 2.8 2.8c1.6 0 2.8-1.2 2.8-2.8.1-1.6-1.2-2.8-2.8-2.8zm0 4.2c-.7 0-1.3-.6-1.3-1.4 0-.8.5-1.4 1.3-1.4s1.3.6 1.3 1.4c0 .9-.5 1.4-1.3 1.4zM89.1 27.6c.6-.3.9-.9.9-1.6 0-1.2-.8-1.9-2.3-1.9-.6 0-1.3 0-1.7.1 0 0-.1 0-.1.1v5.2c0 .1 0 .1.1.1h1.3c.1 0 .1 0 .1-.1v-1.6h.2l1.1 1.6h1.6s.1 0 .1-.1v-.1l-1.3-1.7zm-.7-1.5c0 .3-.1.6-.8.6h-.2v-1.2h.3c.5 0 .7.2.7.6zM96.8 24.2h-1.3c-.1 0-.1 0-.1.1v2.9l-1.9-2.9H92.1c-.1 0-.1 0-.1.1v5.2c0 .1 0 .1.1.1h1.3c.1 0 .1 0 .1-.1v-2.8l2 2.9h1.3c.1 0 .1 0 .1-.1v-5.2c0-.1 0-.2-.1-.2zM100.5 24.2h-1.3c-.1 0-.1 0-.1.1v5.2c0 .1 0 .1.1.1h1.3c.1 0 .1 0 .1-.1l-.1-5.3c.1.1.1 0 0 0zM108.1 29.5l-2-5.2-.1-.1h-1.6s-.1 0-.1.1l-2 5.2v.1h1.5s.1 0 .1-.1l.3-.9h2l.3.9.1.1 1.5-.1c0 .1 0 .1 0 0zm-2.4-2.1h-1l.5-1.5.5 1.5z" class="st0"/>
</svg>
