<svg width="42" height="48" viewBox="0 0 42 48" fill="none" xmlns="http://www.w3.org/2000/svg">
<g clip-path="url(#clip0_3155_4644)">
<path d="M1.48106 12.2813C4.7587 5.23345 11.6327 0.546594 19.3906 0.0702121L20.1734 0L20.8665 0.0175128C23.2598 0.105559 25.6056 0.711922 27.741 1.79627C33.4186 4.63496 36.9973 10.4462 36.9764 16.7942V19.7704L41.6586 27.5741C41.8069 27.8204 41.8109 28.1285 41.669 28.3792C41.5269 28.6297 41.2613 28.7845 40.9732 28.7845H35.9689L36.4539 35.9894C36.8252 38.1211 35.4205 40.1578 33.2955 40.5672C33.2428 40.5782 33.1891 40.5832 33.1359 40.5832C33.1074 40.5832 33.0783 40.5818 33.0505 40.5786L28.1832 40.0508V47.1698C28.1832 47.6117 27.826 47.9693 27.3842 47.9693H8.19941C7.75806 47.9693 7.40025 47.6117 7.40025 47.1698V39.2256L1.15346 23.7919C-0.219448 20.0553 -0.102486 15.934 1.48106 12.2813ZM2.64735 23.2203L8.94074 38.7693C8.98492 38.8835 9.00114 39.0063 8.98974 39.1276C8.98974 39.1446 8.99922 39.1576 8.99922 39.1746V46.3691H26.5847V39.1763C26.5847 39.1594 26.5937 39.1456 26.5945 39.1285C26.5953 39.1118 26.5874 39.0932 26.5897 39.0747C26.6001 39.0284 26.6146 38.983 26.6326 38.9389C26.6413 38.9058 26.6515 38.8724 26.6639 38.8406C26.697 38.7693 26.7404 38.7039 26.7926 38.6459C26.8019 38.6345 26.8064 38.62 26.8164 38.6088C26.8234 38.6041 26.8299 38.5993 26.8369 38.5953C27.0031 38.4283 27.2352 38.3445 27.4703 38.3657L33.0956 38.9749C34.3369 38.6621 35.1151 37.4327 34.868 36.1772L34.3167 28.04C34.2852 27.5993 34.6175 27.2167 35.0582 27.1861C35.1212 27.1861 39.5596 27.1861 39.5596 27.1861L35.4897 20.4034C35.4828 20.3869 35.4764 20.3699 35.4713 20.3522C35.4481 20.3038 35.4305 20.2539 35.4178 20.2013C35.4017 20.1496 35.3911 20.0956 35.3861 20.0413C35.3861 20.023 35.3752 20.0069 35.3752 19.9878V16.7886C35.3954 11.0455 32.16 5.78631 27.0238 3.21513C25.0921 2.23409 22.9697 1.68525 20.8046 1.60652H20.1718C12.751 1.81716 6.08437 6.19666 2.94347 12.923C1.52878 16.1909 1.42306 19.8771 2.64735 23.2203Z" fill="#4F63F9"/>
<path d="M20.1422 26.2222C20.1422 25.564 20.2255 24.9503 20.3921 24.3811C20.5587 23.8118 20.8831 23.3004 21.3654 22.8468C21.7863 22.4465 22.194 22.0352 22.5886 21.6127C22.9831 21.1902 23.3361 20.741 23.6473 20.2652C23.9586 19.7893 24.2063 19.289 24.3905 18.7642C24.5746 18.2395 24.6667 17.6747 24.6667 17.0698C24.6667 16.296 24.5505 15.5956 24.3181 14.9685C24.0858 14.3415 23.746 13.8078 23.2988 13.3675C22.8516 12.9272 22.3014 12.5893 21.6482 12.3536C20.9949 12.1179 20.2474 12 19.4057 12C18.6428 12 17.9348 12.109 17.2815 12.3269C16.6283 12.5448 16.0606 12.8605 15.5783 13.2741C15.096 13.6877 14.7146 14.1925 14.434 14.7884C14.1534 15.3843 14.0088 16.0603 14 16.8163H16.4332C16.4332 16.3538 16.5165 15.9558 16.6831 15.6223C16.8497 15.2887 17.0711 15.013 17.3473 14.7951C17.6235 14.5772 17.9392 14.4171 18.2943 14.3148C18.6494 14.2125 19.0199 14.1614 19.4057 14.1614C20.3263 14.1614 21.0278 14.426 21.5101 14.9552C21.9923 15.4844 22.2335 16.216 22.2335 17.1499C22.2335 17.6035 22.1721 18.0038 22.0493 18.3506C21.9266 18.6975 21.7622 19.0199 21.5561 19.3179C21.35 19.6159 21.1089 19.9049 20.8327 20.1851C20.5565 20.4653 20.2694 20.761 19.9712 21.0723C19.5503 21.5082 19.1974 21.9017 18.9125 22.2531C18.6275 22.6044 18.3973 22.9669 18.2219 23.3404C18.0466 23.714 17.9194 24.1276 17.8405 24.5812C17.7616 25.0348 17.7178 25.5818 17.709 26.2222H20.1422ZM18.8828 31.5556C19.3212 31.5556 19.654 31.4307 19.8813 31.181C20.1086 30.9312 20.2222 30.6159 20.2222 30.2349C20.2222 29.854 20.1086 29.5344 19.8813 29.2762C19.654 29.018 19.3212 28.8889 18.8828 28.8889C18.4444 28.8889 18.1136 29.018 17.8904 29.2762C17.6672 29.5344 17.5556 29.854 17.5556 30.2349C17.5556 30.6159 17.6672 30.9312 17.8904 31.181C18.1136 31.4307 18.4444 31.5556 18.8828 31.5556Z" fill="#4F63F9"/>
</g>
<defs>
<clipPath id="clip0_3155_4644">
<rect width="41.7778" height="48" fill="white" transform="matrix(-1 0 0 1 41.7778 0)"/>
</clipPath>
</defs>
</svg>
