<?xml version="1.0" encoding="UTF-8"?>
<svg width="118px" height="127px" viewBox="0 0 118 127" version="1.1" xmlns="http://www.w3.org/2000/svg" xmlns:xlink="http://www.w3.org/1999/xlink">
    <!-- Generator: sketchtool 60.1 (101010) - https://sketch.com -->
    <title>A3F38827-017A-4769-BEE5-7AA8B858B65E</title>
    <desc>Created with sketchtool.</desc>
    <g id="Page-1" stroke="none" stroke-width="1" fill="none" fill-rule="evenodd">
        <g id="Desktop-HD" transform="translate(-278.000000, -165.000000)">
            <g id="Group-15" transform="translate(163.000000, 71.000000)">
                <g id="Group-11" transform="translate(114.000000, 94.000000)">
                    <g id="Group-5-Copy" transform="translate(59.700000, 63.500000) scale(-1, 1) translate(-59.700000, -63.500000) translate(0.700000, 0.000000)">
                        <path d="M53.76,21.12 C30.46848,21.12 11.52,40.06848 11.52,63.36 C11.52,86.65152 30.46848,105.6 53.76,105.6 C77.05152,105.6 96,86.65152 96,63.36 C96,40.06848 77.05152,21.12 53.76,21.12 M53.76,117.12 C24.11712,117.12 0,93.00288 0,63.36 C0,33.71712 24.11712,9.6 53.76,9.6 C83.40288,9.6 107.52,33.71712 107.52,63.36 C107.52,93.00288 83.40288,117.12 53.76,117.12" id="Fill-1" fill="#A2AFCC"></path>
                        <path d="M53.76,126.72 C40.27008,126.72 27.3888,122.5344 16.51008,114.61824 L28.93632,97.54176 C36.1824,102.81408 44.7648,105.6 53.76,105.6 C77.05152,105.6 96,86.65152 96,63.36 C96,40.06848 77.05152,21.12 53.76,21.12 L53.76,0 C88.69632,0 117.12,28.42368 117.12,63.36 C117.12,98.29632 88.69632,126.72 53.76,126.72" id="Fill-3" fill="#A12F00"></path>
                    </g>
                    <g id="Group-4-Copy-2" transform="translate(36.200000, 43.600000)" fill="#2A3653" fill-rule="nonzero">
                        <path d="M3.93378906,34.6289062 C4.30332031,34.6289062 4.65244141,34.5655273 4.98115234,34.4387695 C5.30986328,34.3120117 5.59882813,34.1422852 5.84804688,33.9295898 C6.09726563,33.7168945 6.29814453,33.4698242 6.45068359,33.1883789 C6.60322266,32.9069336 6.68808594,32.6115234 6.70527344,32.3021484 L6.70527344,32.3021484 L5.57734375,32.3021484 C5.56015625,32.4955078 5.50537109,32.6749023 5.41298828,32.840332 C5.32060547,33.0057617 5.20029297,33.1486328 5.05205078,33.2689453 C4.90380859,33.3892578 4.73300781,33.4837891 4.53964844,33.5525391 C4.34628906,33.6212891 4.14433594,33.6556641 3.93378906,33.6556641 C3.55996094,33.6556641 3.25058594,33.5826172 3.00566406,33.4365234 C2.76074219,33.2904297 2.56523438,33.0992187 2.41914062,32.8628906 C2.27304688,32.6265625 2.16992188,32.359082 2.10976563,32.0604492 C2.04960938,31.7618164 2.01953125,31.4578125 2.01953125,31.1484375 L2.01953125,31.1484375 L2.01953125,30.8777344 C2.01953125,30.5769531 2.04960938,30.2772461 2.10976563,29.9786133 C2.16992188,29.6799805 2.27412109,29.4114258 2.42236328,29.1729492 C2.57060547,28.9344727 2.76611328,28.7421875 3.00888672,28.5960937 C3.25166016,28.45 3.5578125,28.3769531 3.92734375,28.3769531 C4.16796875,28.3769531 4.38603516,28.4177734 4.58154297,28.4994141 C4.77705078,28.5810547 4.94570313,28.6916992 5.0875,28.8313477 C5.22929688,28.9709961 5.34208984,29.1342773 5.42587891,29.3211914 C5.50966797,29.5081055 5.56015625,29.7089844 5.57734375,29.9238281 L5.57734375,29.9238281 L6.70527344,29.9238281 C6.68808594,29.5671875 6.61074219,29.2341797 6.47324219,28.9248047 C6.33574219,28.6154297 6.14560547,28.3479492 5.90283203,28.1223633 C5.66005859,27.8967773 5.37216797,27.7195312 5.03916016,27.590625 C4.70615234,27.4617187 4.33554688,27.3972656 3.92734375,27.3972656 C3.403125,27.3972656 2.94765625,27.4907227 2.5609375,27.6776367 C2.17421875,27.8645508 1.85195313,28.1169922 1.59414063,28.4349609 C1.33632813,28.7529297 1.14404297,29.1224609 1.01728516,29.5435547 C0.890527344,29.9646484 0.827148438,30.409375 0.827148438,30.8777344 L0.827148438,30.8777344 L0.827148438,31.1484375 C0.827148438,31.6167969 0.890527344,32.0615234 1.01728516,32.4826172 C1.14404297,32.9037109 1.33632813,33.2732422 1.59414063,33.5912109 C1.85195313,33.9091797 2.17529297,34.1616211 2.56416016,34.3485352 C2.95302734,34.5354492 3.40957031,34.6289062 3.93378906,34.6289062 Z M10.9076172,34.6289062 C11.3974609,34.6289062 11.8378906,34.5397461 12.2289063,34.3614258 C12.6199219,34.1831055 12.9529297,33.9360352 13.2279297,33.6202148 C13.5029297,33.3043945 13.7134766,32.9305664 13.8595703,32.4987305 C14.0056641,32.0668945 14.0787109,31.5974609 14.0787109,31.0904297 L14.0787109,31.0904297 L14.0787109,30.9486328 C14.0787109,30.4416016 14.0056641,29.972168 13.8595703,29.540332 C13.7134766,29.1084961 13.5029297,28.7335938 13.2279297,28.415625 C12.9529297,28.0976562 12.6188477,27.8484375 12.2256836,27.6679688 C11.8325195,27.4875 11.3888672,27.3972656 10.8947266,27.3972656 C10.4091797,27.3972656 9.97089844,27.4875 9.57988281,27.6679688 C9.18886719,27.8484375 8.85693359,28.0976562 8.58408203,28.415625 C8.31123047,28.7335938 8.10068359,29.1084961 7.95244141,29.540332 C7.80419922,29.972168 7.73007813,30.4416016 7.73007813,30.9486328 L7.73007813,30.9486328 L7.73007813,31.0904297 C7.73007813,31.5974609 7.80419922,32.0668945 7.95244141,32.4987305 C8.10068359,32.9305664 8.31230469,33.3043945 8.58730469,33.6202148 C8.86230469,33.9360352 9.1953125,34.1831055 9.58632813,34.3614258 C9.97734375,34.5397461 10.4177734,34.6289062 10.9076172,34.6289062 Z M10.9076172,33.6556641 C10.5767578,33.6556641 10.287793,33.5869141 10.0407227,33.4494141 C9.79365234,33.3119141 9.58740234,33.1260742 9.42197266,32.8918945 C9.25654297,32.6577148 9.13300781,32.3859375 9.05136719,32.0765625 C8.96972656,31.7671875 8.92890625,31.4384766 8.92890625,31.0904297 L8.92890625,31.0904297 L8.92890625,30.9486328 C8.92890625,30.6048828 8.96972656,30.2772461 9.05136719,29.9657227 C9.13300781,29.6541992 9.25654297,29.3813477 9.42197266,29.147168 C9.58740234,28.9129883 9.79257813,28.7260742 10.0375,28.5864258 C10.2824219,28.4467773 10.5681641,28.3769531 10.8947266,28.3769531 C11.2255859,28.3769531 11.515625,28.4467773 11.7648438,28.5864258 C12.0140625,28.7260742 12.2213867,28.9129883 12.3868164,29.147168 C12.5522461,29.3813477 12.6768555,29.6541992 12.7606445,29.9657227 C12.8444336,30.2772461 12.8863281,30.6048828 12.8863281,30.9486328 L12.8863281,30.9486328 L12.8863281,31.0904297 C12.8863281,31.4384766 12.8444336,31.7671875 12.7606445,32.0765625 C12.6768555,32.3859375 12.5533203,32.6577148 12.3900391,32.8918945 C12.2267578,33.1260742 12.0205078,33.3119141 11.7712891,33.4494141 C11.5220703,33.5869141 11.2341797,33.6556641 10.9076172,33.6556641 Z M18.2230469,34.5 L20.7238281,27.5261719 L19.5056641,27.5261719 L17.7783203,32.8822266 L16.0058594,27.5261719 L14.7876953,27.5261719 L17.3142578,34.5 L18.2230469,34.5 Z M24.68125,34.6289062 C25.0292969,34.6289062 25.3408203,34.5913086 25.6158203,34.5161133 C25.8908203,34.440918 26.134668,34.3399414 26.3473633,34.2131836 C26.5600586,34.0864258 26.7458984,33.9424805 26.9048828,33.7813477 C27.0638672,33.6202148 27.1992188,33.4537109 27.3109375,33.2818359 L27.3109375,33.2818359 L26.5826172,32.7146484 C26.3634766,32.9982422 26.1078125,33.2259766 25.815625,33.3978516 C25.5234375,33.5697266 25.1667969,33.6556641 24.7457031,33.6556641 C24.4277344,33.6556641 24.1430664,33.5955078 23.8916992,33.4751953 C23.640332,33.3548828 23.4254883,33.1916016 23.247168,32.9853516 C23.0688477,32.7791016 22.9313477,32.5363281 22.834668,32.2570312 C22.7379883,31.9777344 22.6853516,31.6769531 22.6767578,31.3546875 L22.6767578,31.3546875 L27.4011719,31.3546875 L27.4011719,30.8197266 C27.4011719,30.3298828 27.3453125,29.8765625 27.2335938,29.4597656 C27.121875,29.0429688 26.9489258,28.6820312 26.7147461,28.3769531 C26.4805664,28.071875 26.1830078,27.8323242 25.8220703,27.6583008 C25.4611328,27.4842773 25.0314453,27.3972656 24.5330078,27.3972656 C24.1376953,27.3972656 23.7574219,27.477832 23.3921875,27.6389648 C23.0269531,27.8000977 22.7025391,28.0332031 22.4189453,28.3382812 C22.1353516,28.6433594 21.9086914,29.0193359 21.7389648,29.4662109 C21.5692383,29.9130859 21.484375,30.4201172 21.484375,30.9873047 L21.484375,30.9873047 L21.484375,31.2580078 C21.484375,31.7478516 21.5595703,32.1990234 21.7099609,32.6115234 C21.8603516,33.0240234 22.0751953,33.3795898 22.3544922,33.6782227 C22.6337891,33.9768555 22.9700195,34.2099609 23.3631836,34.3775391 C23.7563477,34.5451172 24.1957031,34.6289062 24.68125,34.6289062 Z M26.2087891,30.375 L22.7154297,30.375 C22.7541016,30.0527344 22.8260742,29.7669922 22.9313477,29.5177734 C23.0366211,29.2685547 23.16875,29.0601562 23.3277344,28.8925781 C23.4867187,28.725 23.6671875,28.597168 23.8691406,28.509082 C24.0710937,28.4209961 24.2923828,28.3769531 24.5330078,28.3769531 C24.8380859,28.3769531 25.09375,28.4328125 25.3,28.5445312 C25.50625,28.65625 25.6749023,28.8023437 25.805957,28.9828125 C25.9370117,29.1632813 26.0336914,29.3673828 26.0959961,29.5951172 C26.1583008,29.8228516 26.1958984,30.0527344 26.2087891,30.2847656 L26.2087891,30.2847656 L26.2087891,30.375 Z M29.9728516,34.5 L29.9728516,29.55 C30.1017578,29.2449219 30.2961914,29.0021484 30.5561523,28.8216797 C30.8161133,28.6412109 31.1523438,28.5509766 31.5648438,28.5509766 C31.6765625,28.5509766 31.7764648,28.5541992 31.8645508,28.5606445 C31.9526367,28.5670898 32.0482422,28.5789062 32.1513672,28.5960937 L32.1513672,28.5960937 L32.1513672,27.4875 C32.1083984,27.4660156 32.0310547,27.4456055 31.9193359,27.4262695 C31.8076172,27.4069336 31.7087891,27.3972656 31.6228516,27.3972656 C31.2361328,27.3972656 30.9074219,27.4810547 30.6367188,27.6486328 C30.3660156,27.8162109 30.1404297,28.0439453 29.9599609,28.3318359 L29.9599609,28.3318359 L29.940625,27.5261719 L28.7804688,27.5261719 L28.7804688,34.5 L29.9728516,34.5 Z M35.1419922,34.6289062 C35.3568359,34.6289062 35.5609375,34.6063477 35.7542969,34.5612305 C35.9476563,34.5161133 36.1270508,34.4538086 36.2924805,34.3743164 C36.4579102,34.2948242 36.6104492,34.2024414 36.7500977,34.097168 C36.8897461,33.9918945 37.0154297,33.88125 37.1271484,33.7652344 C37.1443359,33.9070313 37.1658203,34.043457 37.1916016,34.1745117 C37.2173828,34.3055664 37.2517578,34.4140625 37.2947266,34.5 L37.2947266,34.5 L38.5451172,34.5 L38.5451172,34.396875 C38.4634766,34.2078125 38.4022461,33.9833008 38.3614258,33.7233398 C38.3206055,33.4633789 38.3001953,33.2152344 38.3001953,32.9789063 L38.3001953,32.9789063 L38.3001953,29.7369141 C38.3001953,29.3458984 38.2357422,29.0042969 38.1068359,28.7121094 C37.9779297,28.4199219 37.7996094,28.1760742 37.571875,27.9805664 C37.3441406,27.7850586 37.0702148,27.6389648 36.7500977,27.5422852 C36.4299805,27.4456055 36.0808594,27.3972656 35.7027344,27.3972656 C35.2816406,27.3972656 34.900293,27.4584961 34.5586914,27.580957 C34.2170898,27.703418 33.9259766,27.8624023 33.6853516,28.0579102 C33.4447266,28.253418 33.2588867,28.4736328 33.127832,28.7185547 C32.9967773,28.9634766 32.93125,29.2105469 32.93125,29.4597656 L32.93125,29.4597656 L34.1300781,29.4597656 C34.1300781,29.3136719 34.1666016,29.1740234 34.2396484,29.0408203 C34.3126953,28.9076172 34.4147461,28.7905273 34.5458008,28.6895508 C34.6768555,28.5885742 34.8347656,28.5080078 35.0195312,28.4478516 C35.2042969,28.3876953 35.4083984,28.3576172 35.6318359,28.3576172 C36.1173828,28.3576172 36.4847656,28.4811523 36.7339844,28.7282227 C36.9832031,28.975293 37.1078125,29.3072266 37.1078125,29.7240234 L37.1078125,29.7240234 L37.1078125,30.271875 L35.921875,30.271875 C35.4449219,30.271875 35.0130859,30.3212891 34.6263672,30.4201172 C34.2396484,30.5189453 33.9098633,30.6650391 33.6370117,30.8583984 C33.3641602,31.0517578 33.1546875,31.2913086 33.0085938,31.5770508 C32.8625,31.862793 32.7894531,32.1925781 32.7894531,32.5664062 C32.7894531,32.8542969 32.8453125,33.1239258 32.9570312,33.375293 C33.06875,33.6266602 33.2266602,33.8447266 33.4307617,34.0294922 C33.6348633,34.2142578 33.8819336,34.3603516 34.1719727,34.4677734 C34.4620117,34.5751953 34.7853516,34.6289062 35.1419922,34.6289062 Z M35.3160156,33.5912109 C35.096875,33.5912109 34.9045898,33.5600586 34.7391602,33.4977539 C34.5737305,33.4354492 34.434082,33.3516602 34.3202148,33.2463867 C34.2063477,33.1411133 34.1214844,33.0154297 34.065625,32.8693359 C34.0097656,32.7232422 33.9818359,32.5664062 33.9818359,32.3988281 C33.9818359,31.9691406 34.1666016,31.6479492 34.5361328,31.4352539 C34.9056641,31.2225586 35.4320313,31.1162109 36.1152344,31.1162109 L36.1152344,31.1162109 L37.1078125,31.1162109 L37.1078125,32.5470703 C37.0433594,32.6802734 36.9541992,32.8091797 36.840332,32.9337891 C36.7264648,33.0583984 36.5921875,33.169043 36.4375,33.2657227 C36.2828125,33.3624023 36.1109375,33.4408203 35.921875,33.5009766 C35.7328125,33.5611328 35.5308594,33.5912109 35.3160156,33.5912109 Z M42.8183594,37.2457031 C43.2566406,37.2457031 43.65625,37.18125 44.0171875,37.0523437 C44.378125,36.9234375 44.6896484,36.7354492 44.9517578,36.4883789 C45.2138672,36.2413086 45.4168945,35.9383789 45.5608398,35.5795898 C45.7047852,35.2208008 45.7767578,34.8115234 45.7767578,34.3517578 L45.7767578,34.3517578 L45.7767578,27.5261719 L44.6875,27.5261719 L44.6294922,28.2996094 C44.3974609,28.0074219 44.1181641,27.7839844 43.7916016,27.6292969 C43.4650391,27.4746094 43.0804688,27.3972656 42.6378906,27.3972656 C42.2125,27.3972656 41.8300781,27.4832031 41.490625,27.6550781 C41.1511719,27.8269531 40.862207,28.0686523 40.6237305,28.3801758 C40.3852539,28.6916992 40.2026367,29.0655273 40.0758789,29.5016602 C39.9491211,29.937793 39.8857422,30.4222656 39.8857422,30.9550781 L39.8857422,30.9550781 L39.8857422,31.0904297 C39.8857422,31.6017578 39.9501953,32.0733398 40.0791016,32.5051758 C40.2080078,32.9370117 40.3916992,33.3108398 40.6301758,33.6266602 C40.8686523,33.9424805 41.156543,34.1884766 41.4938477,34.3646484 C41.8311523,34.5408203 42.2082031,34.6289062 42.625,34.6289062 C43.0546875,34.6289062 43.4295898,34.5580078 43.749707,34.4162109 C44.0698242,34.2744141 44.3458984,34.0703125 44.5779297,33.8039062 L44.5779297,33.8039062 L44.5779297,34.4097656 C44.5779297,34.7148438 44.5349609,34.9823242 44.4490234,35.212207 C44.3630859,35.4420898 44.2395508,35.6365234 44.078418,35.7955078 C43.9172852,35.9544922 43.7228516,36.0737305 43.4951172,36.1532227 C43.2673828,36.2327148 43.0138672,36.2724609 42.7345703,36.2724609 C42.5755859,36.2724609 42.4155273,36.2563477 42.2543945,36.2241211 C42.0932617,36.1918945 41.9342773,36.1392578 41.7774414,36.0662109 C41.6206055,35.9931641 41.4648438,35.8964844 41.3101562,35.7761719 C41.1554687,35.6558594 41.0050781,35.5054687 40.8589844,35.325 L40.8589844,35.325 L40.2402344,36.0404297 C40.3949219,36.2681641 40.5818359,36.459375 40.8009766,36.6140625 C41.0201172,36.76875 41.2489258,36.8922852 41.4874023,36.984668 C41.7258789,37.0770508 41.962207,37.1436523 42.1963867,37.1844727 C42.4305664,37.225293 42.6378906,37.2457031 42.8183594,37.2457031 Z M42.9214844,33.6169922 C42.5992188,33.6169922 42.3220703,33.5503906 42.0900391,33.4171875 C41.8580078,33.2839844 41.6678711,33.1035156 41.5196289,32.8757813 C41.3713867,32.6480469 41.2618164,32.3805664 41.190918,32.0733398 C41.1200195,31.7661133 41.0845703,31.4384766 41.0845703,31.0904297 L41.0845703,31.0904297 L41.0845703,30.9550781 C41.0845703,30.6070312 41.1200195,30.2793945 41.190918,29.972168 C41.2618164,29.6649414 41.3724609,29.3953125 41.5228516,29.1632813 C41.6732422,28.93125 41.8644531,28.7475586 42.0964844,28.612207 C42.3285156,28.4768555 42.6078125,28.4091797 42.934375,28.4091797 C43.140625,28.4091797 43.3275391,28.4338867 43.4951172,28.4833008 C43.6626953,28.5327148 43.8141602,28.6025391 43.9495117,28.6927734 C44.0848633,28.7830078 44.2041016,28.8893555 44.3072266,29.0118164 C44.4103516,29.1342773 44.5005859,29.2664062 44.5779297,29.4082031 L44.5779297,29.4082031 L44.5779297,32.5921875 C44.5005859,32.7425781 44.4103516,32.8800781 44.3072266,33.0046875 C44.2041016,33.1292969 44.0848633,33.2367188 43.9495117,33.3269531 C43.8141602,33.4171875 43.6616211,33.4880859 43.4918945,33.5396484 C43.322168,33.5912109 43.1320313,33.6169922 42.9214844,33.6169922 Z M50.4689453,34.6289062 C50.8169922,34.6289062 51.1285156,34.5913086 51.4035156,34.5161133 C51.6785156,34.440918 51.9223633,34.3399414 52.1350586,34.2131836 C52.3477539,34.0864258 52.5335938,33.9424805 52.6925781,33.7813477 C52.8515625,33.6202148 52.9869141,33.4537109 53.0986328,33.2818359 L53.0986328,33.2818359 L52.3703125,32.7146484 C52.1511719,32.9982422 51.8955078,33.2259766 51.6033203,33.3978516 C51.3111328,33.5697266 50.9544922,33.6556641 50.5333984,33.6556641 C50.2154297,33.6556641 49.9307617,33.5955078 49.6793945,33.4751953 C49.4280273,33.3548828 49.2131836,33.1916016 49.0348633,32.9853516 C48.856543,32.7791016 48.719043,32.5363281 48.6223633,32.2570312 C48.5256836,31.9777344 48.4730469,31.6769531 48.4644531,31.3546875 L48.4644531,31.3546875 L53.1888672,31.3546875 L53.1888672,30.8197266 C53.1888672,30.3298828 53.1330078,29.8765625 53.0212891,29.4597656 C52.9095703,29.0429688 52.7366211,28.6820312 52.5024414,28.3769531 C52.2682617,28.071875 51.9707031,27.8323242 51.6097656,27.6583008 C51.2488281,27.4842773 50.8191406,27.3972656 50.3207031,27.3972656 C49.9253906,27.3972656 49.5451172,27.477832 49.1798828,27.6389648 C48.8146484,27.8000977 48.4902344,28.0332031 48.2066406,28.3382812 C47.9230469,28.6433594 47.6963867,29.0193359 47.5266602,29.4662109 C47.3569336,29.9130859 47.2720703,30.4201172 47.2720703,30.9873047 L47.2720703,30.9873047 L47.2720703,31.2580078 C47.2720703,31.7478516 47.3472656,32.1990234 47.4976563,32.6115234 C47.6480469,33.0240234 47.8628906,33.3795898 48.1421875,33.6782227 C48.4214844,33.9768555 48.7577148,34.2099609 49.1508789,34.3775391 C49.544043,34.5451172 49.9833984,34.6289062 50.4689453,34.6289062 Z M51.9964844,30.375 L48.503125,30.375 C48.5417969,30.0527344 48.6137695,29.7669922 48.719043,29.5177734 C48.8243164,29.2685547 48.9564453,29.0601562 49.1154297,28.8925781 C49.2744141,28.725 49.4548828,28.597168 49.6568359,28.509082 C49.8587891,28.4209961 50.0800781,28.3769531 50.3207031,28.3769531 C50.6257812,28.3769531 50.8814453,28.4328125 51.0876953,28.5445312 C51.2939453,28.65625 51.4625977,28.8023437 51.5936523,28.9828125 C51.724707,29.1632813 51.8213867,29.3673828 51.8836914,29.5951172 C51.9459961,29.8228516 51.9835937,30.0527344 51.9964844,30.2847656 L51.9964844,30.2847656 L51.9964844,30.375 Z" id="coverage"></path>
                        <path d="M12.6395264,17.1255859 C13.4817139,17.1255859 14.2430664,16.980835 14.923584,16.691333 C15.6041016,16.4018311 16.1849854,16.0051758 16.6662354,15.5013672 C17.1474854,14.9975586 17.5178223,14.4016357 17.7772461,13.7135986 C18.0366699,13.0255615 18.1663818,12.2830078 18.1663818,11.4859375 C18.1663818,10.7264648 18.0686279,10.0102295 17.8731201,9.33723145 C17.6776123,8.6642334 17.3843506,8.0739502 16.993335,7.56638184 C16.6023193,7.05881348 16.1154297,6.65651855 15.532666,6.35949707 C14.9499023,6.06247559 14.2712646,5.91396484 13.4967529,5.91396484 C12.789917,5.91396484 12.1601562,6.03615723 11.6074707,6.28054199 C11.0547852,6.52492676 10.5791748,6.85014648 10.1806396,7.25620117 C10.270874,6.60200195 10.4532227,6.01171875 10.7276855,5.48535156 C11.0021484,4.95898437 11.3630859,4.51157227 11.810498,4.14311523 C12.2579102,3.7746582 12.789917,3.4907959 13.4065186,3.29152832 C14.0231201,3.09226074 14.7186768,2.99262695 15.4931885,2.99262695 L15.4931885,2.99262695 L15.6849365,2.99262695 L15.6849365,0.308154297 L15.2224854,0.308154297 C13.8990479,0.308154297 12.7184814,0.529980469 11.6807861,0.973632812 C10.6430908,1.41728516 9.76706543,2.03764648 9.05270996,2.8347168 C8.33835449,3.63178711 7.79318848,4.58300781 7.41721191,5.68837891 C7.04123535,6.79375 6.85324707,8.0081543 6.85324707,9.3315918 L6.85324707,9.3315918 L6.85324707,10.594873 C6.85324707,11.557373 6.99047852,12.4390381 7.26494141,13.2398682 C7.5394043,14.0406982 7.92666016,14.7287354 8.42670898,15.3039795 C8.92675781,15.8792236 9.53395996,16.3266357 10.2483154,16.6462158 C10.9626709,16.9657959 11.7597412,17.1255859 12.6395264,17.1255859 Z M12.5718506,14.4975098 C12.2109131,14.4975098 11.8781738,14.4260742 11.5736328,14.2832031 C11.2690918,14.140332 11.009668,13.9241455 10.7953613,13.6346436 C10.5810547,13.3451416 10.4137451,12.9823242 10.2934326,12.5461914 C10.1731201,12.1100586 10.1129639,11.6024902 10.1129639,11.0234863 L10.1129639,11.0234863 L10.1129639,10.0421875 C10.2031982,9.83916016 10.3253906,9.64553223 10.479541,9.46130371 C10.6336914,9.2770752 10.8122803,9.11540527 11.0153076,8.97629395 C11.218335,8.83718262 11.4439209,8.72814941 11.6920654,8.64919434 C11.94021,8.57023926 12.2109131,8.53076172 12.5041748,8.53076172 C12.8801514,8.53076172 13.2166504,8.60407715 13.5136719,8.75070801 C13.8106934,8.89733887 14.0644775,9.10412598 14.2750244,9.37106934 C14.4855713,9.6380127 14.6453613,9.95383301 14.7543945,10.3185303 C14.8634277,10.6832275 14.9179443,11.0836426 14.9179443,11.5197754 C14.9179443,11.9483887 14.8615479,12.3450439 14.7487549,12.7097412 C14.6359619,13.0744385 14.4780518,13.3883789 14.2750244,13.6515625 C14.0719971,13.9147461 13.8257324,14.1215332 13.5362305,14.2719238 C13.2467285,14.4223145 12.9252686,14.4975098 12.5718506,14.4975098 Z M25.5994385,17.1255859 C26.4265869,17.1255859 27.1804199,16.9921143 27.8609375,16.7251709 C28.5414551,16.4582275 29.1242187,16.0390137 29.6092285,15.4675293 C30.0942383,14.8960449 30.4702148,14.1685303 30.7371582,13.2849854 C31.0041016,12.4014404 31.1375732,11.3430664 31.1375732,10.1098633 L31.1375732,10.1098633 L31.1375732,7.25620117 C31.1375732,6.02299805 31.0022217,4.96462402 30.7315186,4.0810791 C30.4608154,3.19753418 30.0810791,2.47189941 29.5923096,1.9041748 C29.10354,1.3364502 28.5188965,0.919116211 27.8383789,0.652172852 C27.1578613,0.385229492 26.4040283,0.251757812 25.5768799,0.251757812 C24.7497314,0.251757812 23.9977783,0.385229492 23.3210205,0.652172852 C22.6442627,0.919116211 22.061499,1.3364502 21.5727295,1.9041748 C21.08396,2.47189941 20.7061035,3.19753418 20.4391602,4.0810791 C20.1722168,4.96462402 20.0387451,6.02299805 20.0387451,7.25620117 L20.0387451,7.25620117 L20.0387451,10.1098633 C20.0387451,11.3430664 20.1740967,12.4014404 20.4447998,13.2849854 C20.7155029,14.1685303 21.0952393,14.8960449 21.5840088,15.4675293 C22.0727783,16.0390137 22.6574219,16.4582275 23.3379395,16.7251709 C24.018457,16.9921143 24.77229,17.1255859 25.5994385,17.1255859 Z M25.5994385,14.4975098 C25.238501,14.4975098 24.9151611,14.429834 24.6294189,14.2944824 C24.3436768,14.1591309 24.1030518,13.9354248 23.9075439,13.6233643 C23.7120361,13.3113037 23.5616455,12.9033691 23.4563721,12.3995605 C23.3510986,11.895752 23.2984619,11.2753906 23.2984619,10.5384766 L23.2984619,10.5384766 L23.2984619,6.79375 C23.2984619,6.06435547 23.3492187,5.45151367 23.4507324,4.95522461 C23.5522461,4.45893555 23.7007568,4.05852051 23.8962646,3.75397949 C24.0917725,3.44943848 24.3305176,3.22949219 24.6125,3.09414063 C24.8944824,2.95878906 25.2159424,2.89111328 25.5768799,2.89111328 C25.9378174,2.89111328 26.2611572,2.95878906 26.5468994,3.09414063 C26.8326416,3.22949219 27.0751465,3.44943848 27.2744141,3.75397949 C27.4736816,4.05852051 27.6240723,4.45893555 27.7255859,4.95522461 C27.8270996,5.45151367 27.8778564,6.06435547 27.8778564,6.79375 L27.8778564,6.79375 L27.8778564,10.5384766 C27.8778564,11.2753906 27.8270996,11.895752 27.7255859,12.3995605 C27.6240723,12.9033691 27.4774414,13.3113037 27.2856934,13.6233643 C27.0939453,13.9354248 26.8552002,14.1591309 26.569458,14.2944824 C26.2837158,14.429834 25.960376,14.4975098 25.5994385,14.4975098 Z M36.8674561,7.8765625 C37.4539795,7.8765625 37.9671875,7.78632812 38.4070801,7.60585937 C38.8469727,7.42539063 39.2173096,7.18288574 39.5180908,6.87834473 C39.8188721,6.57380371 40.044458,6.21662598 40.1948486,5.80681152 C40.3452393,5.39699707 40.4204346,4.96274414 40.4204346,4.50405273 L40.4204346,4.50405273 L40.4204346,3.63554688 C40.4204346,3.16933594 40.3452393,2.73132324 40.1948486,2.32150879 C40.044458,1.91169434 39.8188721,1.55263672 39.5180908,1.24433594 C39.2173096,0.936035156 38.8432129,0.691650391 38.3958008,0.511181641 C37.9483887,0.330712891 37.4314209,0.240478516 36.8448975,0.240478516 C36.2658936,0.240478516 35.7564453,0.330712891 35.3165527,0.511181641 C34.8766602,0.691650391 34.5063232,0.936035156 34.205542,1.24433594 C33.9047607,1.55263672 33.6772949,1.91169434 33.5231445,2.32150879 C33.3689941,2.73132324 33.2919189,3.16933594 33.2919189,3.63554688 L33.2919189,3.63554688 L33.2919189,4.50405273 C33.2919189,4.96274414 33.3689941,5.39699707 33.5231445,5.80681152 C33.6772949,6.21662598 33.9047607,6.57380371 34.205542,6.87834473 C34.5063232,7.18288574 34.8804199,7.42539063 35.327832,7.60585937 C35.7752441,7.78632812 36.2884521,7.8765625 36.8674561,7.8765625 Z M37.510376,15.6705566 L45.5299561,2.8347168 L43.9395752,1.97749023 L35.9199951,14.8133301 L37.510376,15.6705566 Z M36.8674561,6.00419922 C36.6268311,6.00419922 36.4200439,5.9628418 36.2470947,5.88012695 C36.0741455,5.79741211 35.9275146,5.68649902 35.8072021,5.5473877 C35.6868896,5.40827637 35.5985352,5.24848633 35.5421387,5.06801758 C35.4857422,4.88754883 35.4575439,4.69956055 35.4575439,4.50405273 L35.4575439,4.50405273 L35.4575439,3.63554688 C35.4575439,3.44003906 35.4857422,3.2501709 35.5421387,3.06594238 C35.5985352,2.88171387 35.6850098,2.72004395 35.8015625,2.58093262 C35.9181152,2.44182129 36.0628662,2.3309082 36.2358154,2.24819336 C36.4087646,2.16547852 36.611792,2.12412109 36.8448975,2.12412109 C37.0855225,2.12412109 37.2941895,2.16547852 37.4708984,2.24819336 C37.6476074,2.3309082 37.7923584,2.44182129 37.9051514,2.58093262 C38.0179443,2.72004395 38.1025391,2.88171387 38.1589355,3.06594238 C38.215332,3.2501709 38.2435303,3.44003906 38.2435303,3.63554688 L38.2435303,3.63554688 L38.2435303,4.50405273 C38.2435303,4.69956055 38.215332,4.88754883 38.1589355,5.06801758 C38.1025391,5.24848633 38.0179443,5.40827637 37.9051514,5.5473877 C37.7923584,5.68649902 37.6494873,5.79741211 37.4765381,5.88012695 C37.3035889,5.9628418 37.1005615,6.00419922 36.8674561,6.00419922 Z M44.729126,17.1255859 C45.3156494,17.1255859 45.8288574,17.0372314 46.26875,16.8605225 C46.7086426,16.6838135 47.0789795,16.4413086 47.3797607,16.1330078 C47.680542,15.824707 47.9061279,15.4675293 48.0565186,15.0614746 C48.2069092,14.6554199 48.2821045,14.2192871 48.2821045,13.7530762 L48.2821045,13.7530762 L48.2821045,12.873291 C48.2821045,12.4145996 48.2069092,11.9784668 48.0565186,11.5648926 C47.9061279,11.1513184 47.680542,10.7922607 47.3797607,10.4877197 C47.0789795,10.1831787 46.7048828,9.94067383 46.2574707,9.76020508 C45.8100586,9.57973633 45.2930908,9.48950195 44.7065674,9.48950195 C44.1275635,9.48950195 43.6181152,9.57973633 43.1782227,9.76020508 C42.7383301,9.94067383 42.3661133,10.1831787 42.0615723,10.4877197 C41.7570312,10.7922607 41.5276855,11.1513184 41.3735352,11.5648926 C41.2193848,11.9784668 41.1423096,12.4145996 41.1423096,12.873291 L41.1423096,12.873291 L41.1423096,13.7530762 C41.1423096,14.2192871 41.2193848,14.6554199 41.3735352,15.0614746 C41.5276855,15.4675293 41.7570312,15.824707 42.0615723,16.1330078 C42.3661133,16.4413086 42.7420898,16.6838135 43.189502,16.8605225 C43.6369141,17.0372314 44.1501221,17.1255859 44.729126,17.1255859 Z M44.729126,15.2532227 C44.5110596,15.2532227 44.3155518,15.2118652 44.1426025,15.1291504 C43.9696533,15.0464355 43.8211426,14.9355225 43.6970703,14.7964111 C43.572998,14.6572998 43.477124,14.4975098 43.4094482,14.317041 C43.3417725,14.1365723 43.3079346,13.948584 43.3079346,13.7530762 L43.3079346,13.7530762 L43.3079346,12.873291 C43.3079346,12.6777832 43.3361328,12.4897949 43.3925293,12.3093262 C43.4489258,12.1288574 43.5354004,11.9690674 43.6519531,11.8299561 C43.7685059,11.6908447 43.9151367,11.5799316 44.0918457,11.4972168 C44.2685547,11.414502 44.4734619,11.3731445 44.7065674,11.3731445 C44.9396729,11.3731445 45.1445801,11.414502 45.3212891,11.4972168 C45.497998,11.5799316 45.6446289,11.6908447 45.7611816,11.8299561 C45.8777344,11.9690674 45.964209,12.1288574 46.0206055,12.3093262 C46.077002,12.4897949 46.1052002,12.6777832 46.1052002,12.873291 L46.1052002,12.873291 L46.1052002,13.7530762 C46.1052002,13.948584 46.0845215,14.1365723 46.0431641,14.317041 C46.0018066,14.4975098 45.9284912,14.6572998 45.8232178,14.7964111 C45.7179443,14.9355225 45.5769531,15.0464355 45.4002441,15.1291504 C45.2235352,15.2118652 44.9998291,15.2532227 44.729126,15.2532227 Z" id="60%"></path>
                    </g>
                </g>
            </g>
        </g>
    </g>
</svg>