<?xml version="1.0" encoding="UTF-8"?>
<svg width="40px" height="39px" viewBox="0 0 40 39" version="1.1" xmlns="http://www.w3.org/2000/svg" xmlns:xlink="http://www.w3.org/1999/xlink">
    <!-- Generator: sketchtool 60.1 (101010) - https://sketch.com -->
    <title>C532C76C-68AD-467B-93DA-7D17F10E2C2D</title>
    <desc>Created with sketchtool.</desc>
    <defs>
        <polygon id="path-1" points="2.91005291e-05 0.0267530864 39.5566402 0.0267530864 39.5566402 38.8976704 2.91005291e-05 38.8976704"></polygon>
    </defs>
    <g id="Page-1" stroke="none" stroke-width="1" fill="none" fill-rule="evenodd">
        <g id="Desktop-HD" transform="translate(-1023.000000, -492.000000)">
            <g id="Group-14" transform="translate(830.000000, 460.000000)">
                <g id="Group-6-Copy-8" transform="translate(193.000000, 32.000000)">
                    <g id="Group-3">
                        <mask id="mask-2" fill="white">
                            <use xlink:href="#path-1"></use>
                        </mask>
                        <g id="Clip-2"></g>
                        <path d="M35.0448263,24.6961446 C33.4162637,24.6961446 32.0959727,23.3759506 32.0959727,21.747388 C32.1002407,20.1204744 33.4180097,18.8028025 35.0448263,18.7985344 C36.6733889,18.7985344 37.9935829,20.1188254 37.9935829,21.747388 C37.9935829,23.3759506 36.6734859,24.6961446 35.0448263,24.6961446 M39.4884771,20.9713739 C39.0599233,18.5227584 36.7275159,16.8853686 34.2789004,17.3139224 C32.4111314,17.6409153 30.9484418,19.1035079 30.6214489,20.9713739 L25.3755935,20.9713739 C22.2384594,20.9713739 19.6952672,23.5144691 19.6952672,26.6517002 L19.6952672,33.0073527 C19.794015,35.2851481 18.0276129,37.2118942 15.7497205,37.310836 C13.471828,37.4095838 11.545082,35.6431817 11.4462372,33.3650952 C11.4410961,33.2459771 11.4410961,33.1264709 11.4462372,33.0073527 L11.4462372,23.9124674 C16.9714577,23.4002981 21.3481772,17.4793104 21.3481772,10.254619 L21.3481772,3.37903704 C21.3481772,2.95048325 21.0007169,2.60302293 20.5721631,2.60302293 L17.4215459,2.60302293 L17.4215459,0.802767196 C17.4215459,0.374213404 17.0740855,0.0267530864 16.6455317,0.0267530864 C16.216978,0.0267530864 15.8695176,0.374213404 15.8695176,0.802767196 L15.8695176,5.94774074 C15.8695176,6.37629453 16.216978,6.72375485 16.6455317,6.72375485 C17.0740855,6.72375485 17.4215459,6.37629453 17.4215459,5.94774074 L17.4215459,4.15505115 L19.8039092,4.15505115 L19.8039092,10.2623792 C19.8039092,16.9670441 15.7065547,22.4146631 10.6779832,22.4146631 C5.64941182,22.4146631 1.55205732,16.9825644 1.55205732,10.2623792 L1.55205732,4.15505115 L3.88009965,4.15505115 L3.88009965,5.94774074 C3.88009965,6.37629453 4.22755996,6.72375485 4.65611376,6.72375485 C5.08466755,6.72375485 5.43212787,6.37629453 5.43212787,5.94774074 L5.43212787,0.802767196 C5.43212787,0.374213404 5.08466755,0.0267530864 4.65611376,0.0267530864 C4.22755996,0.0267530864 3.88009965,0.374213404 3.88009965,0.802767196 L3.88009965,2.60302293 L0.77604321,2.60302293 C0.347489418,2.60302293 2.91005291e-05,2.95048325 2.91005291e-05,3.37903704 L2.91005291e-05,10.2623792 C2.91005291e-05,17.4793104 4.37674868,23.4002981 9.90196914,23.9124674 L9.90196914,33.0073527 C9.78595503,36.1423527 12.2335035,38.7778907 15.3686005,38.8937108 C18.5036975,39.0097249 21.1391384,36.5621764 21.2550556,33.4271764 C21.2601966,33.2872028 21.2601966,33.1471323 21.2550556,33.0073527 L21.2550556,26.6517002 C21.2550556,24.3716737 23.1034242,22.5234021 25.3833536,22.5234021 L30.6214489,22.5234021 C31.0500026,24.9719206 33.3824101,26.6094074 35.8309286,26.1808536 C38.2795441,25.7522998 39.9171279,23.4198924 39.4884771,20.9713739" id="Fill-1" fill="#4F63F9" mask="url(#mask-2)"></path>
                    </g>
                    <path d="M35.1089947,20.6645503 C35.7226446,20.6645503 36.2201058,21.1620114 36.2201058,21.7756614 C36.2201058,22.3893113 35.7226446,22.8867725 35.1089947,22.8867725 C34.4953448,22.8867725 33.9978836,22.3893113 33.9978836,21.7756614 C33.9978836,21.1620114 34.4953448,20.6645503 35.1089947,20.6645503" id="Fill-4" fill="#4F63F9"></path>
                </g>
            </g>
        </g>
    </g>
</svg>