<svg xmlns="http://www.w3.org/2000/svg" aria-labelledby="Covered California logo" viewBox="0 0 40 50"><g fill="currentColor" fill-rule="nonzero"><path d="M36.972 33.008v.247h-.41v1.196h-.288v-1.196h-.41v-.247zM38.082 33.008h.411v1.443h-.288v-1.237l-.287 1.195h-.247l-.287-1.195v1.237h-.288v-1.443h.452l.247 1.113.287-1.113ZM4.51 42.19h-.091c-.365.319-.73.456-1.276.456-.729 0-1.184-.502-1.184-1.323S2.414 40 3.098 40c.5 0 .91.183 1.23.502.045.046.045.046.09 0 .046 0 .046-.046.046-.091v-1.186c0-.046 0-.046-.045-.091-.365-.228-.775-.32-1.321-.32-1.504 0-2.506 1.004-2.506 2.555 0 1.505 1.002 2.554 2.506 2.554.592 0 1.002-.092 1.412-.365.045 0 .045-.046.045-.091v-1.232l-.045-.045ZM8.701 38.86c-1.458 0-2.551 1.095-2.551 2.554 0 1.46 1.093 2.554 2.551 2.554 1.458 0 2.551-1.094 2.551-2.554 0-1.46-1.093-2.554-2.551-2.554Zm0 3.831c-.683 0-1.184-.547-1.184-1.322 0-.776.455-1.323 1.184-1.323.683 0 1.184.502 1.184 1.323-.045.775-.5 1.322-1.184 1.322ZM17.402 38.906h-1.276c-.045 0-.045 0-.09.045l-1.14 3.33-1.138-3.33c0-.045-.046-.045-.092-.045h-1.275c-.046 0-.046 0-.046.045v.091l1.777 4.744c0 .045.046.045.091.045h1.458c.045 0 .045 0 .09-.045l1.778-4.744v-.09c-.092 0-.137-.046-.137-.046ZM22.276 42.6h-1.959v-.639h1.686a.098.098 0 0 0 .091-.09v-1.004a.098.098 0 0 0-.091-.091h-1.686v-.639h1.868a.098.098 0 0 0 .091-.091v-1.05a.098.098 0 0 0-.09-.09h-3.144a.098.098 0 0 0-.091.09v4.744c0 .046.045.091.09.091h3.19a.098.098 0 0 0 .09-.09v-1.05c.046-.045 0-.091-.045-.091ZM27.105 42.007c.501-.32.82-.82.82-1.414 0-1.095-.729-1.733-2.095-1.733-.547 0-1.14.046-1.504.091a.098.098 0 0 0-.09.091v4.744c0 .045.045.091.09.091h1.185a.098.098 0 0 0 .09-.091v-1.414h.229l1.002 1.46s.045.045.09.045h1.322c.045 0 .045 0 .091-.046v-.09l-1.23-1.734Zm-.547-1.414c0 .228-.09.593-.774.593h-.228v-1.14h.228c.501 0 .774.182.774.547ZM33.118 42.6H31.16v-.639h1.686a.098.098 0 0 0 .091-.09v-1.004a.098.098 0 0 0-.091-.091h-1.686v-.639h1.868a.098.098 0 0 0 .091-.091v-1.05a.098.098 0 0 0-.09-.09h-3.144a.098.098 0 0 0-.091.09v4.744c0 .046.045.091.09.091h3.19a.098.098 0 0 0 .09-.09v-1.05c.046-.045 0-.091-.045-.091ZM36.763 38.86c-.593 0-1.23.046-1.595.137a.098.098 0 0 0-.09.091v4.652c0 .046.045.091.045.091.455.092 1.275.092 1.594.092 1.777 0 2.779-.958 2.779-2.554 0-1.597-1.002-2.509-2.733-2.509Zm.09 3.831h-.41v-2.554h.41c.82 0 1.276.456 1.276 1.232 0 .82-.455 1.322-1.275 1.322ZM3.781 48.62h-.046c-.273.229-.546.365-.956.365-.547 0-.911-.364-.911-.957s.319-.958.865-.958c.365 0 .684.137.911.365h.046l.045-.046v-.958s0-.045-.045-.045a2.17 2.17 0 0 0-1.002-.228c-1.14 0-1.868.775-1.868 1.87 0 1.14.729 1.87 1.868 1.87.41 0 .729-.092 1.047-.274l.046-.046v-.912c.046-.045.046-.045 0-.045ZM7.38 46.203l-.046-.045H6.287c-.046 0-.046 0-.046.045l-1.367 3.512v.046l.046.045h.911c.046 0 .046 0 .046-.045l.227-.639h1.367l.228.639.045.045h.957c.046 0 .046-.045.046-.045v-.046L7.38 46.203Zm-.228 2.098h-.729l.365-1.049.364 1.05ZM12.163 48.94h-1.275v-2.691c0-.046-.046-.046-.046-.046h-.866c-.045 0-.045.046-.045.046v3.512c0 .045.045.045.045.045h2.233c.045 0 .045-.045.045-.045v-.776c-.045-.045-.045-.045-.09-.045ZM14.395 46.203h-.865c-.046 0-.046.046-.046.046v3.512c0 .045.046.045.046.045h.865c.046 0 .046-.045.046-.045v-3.512c.045-.046 0-.046-.046-.046ZM18.176 46.203h-2.14c-.046 0-.046.046-.046.046v3.512c0 .045.045.045.045.045h.866c.045 0 .045-.045.045-.045v-1.186h1.048c.046 0 .046-.046.046-.046v-.775c0-.046-.046-.046-.046-.046h-1.048v-.638h1.185c.045 0 .045-.046.045-.046v-.775c.046-.046.046-.046 0-.046ZM21.274 46.112c-1.093 0-1.868.821-1.868 1.87 0 1.049.82 1.87 1.868 1.87 1.093 0 1.913-.821 1.913-1.87-.045-1.049-.865-1.87-1.913-1.87Zm0 2.873c-.501 0-.865-.41-.865-.957 0-.593.364-.958.865-.958s.866.41.866.958c0 .547-.365.957-.866.957ZM26.604 48.484c.364-.228.592-.593.592-1.05 0-.82-.546-1.276-1.549-1.276-.41 0-.865.045-1.139.09-.045 0-.045.046-.045.046v3.512c0 .046.045.046.045.046h.866c.046 0 .046-.046.046-.046v-1.094h.182l.729 1.094.045.046h1.048s.046 0 .046-.046v-.045l-.866-1.277Zm-.41-1.05c0 .274-.182.411-.592.411h-.182v-.866h.182c.319.045.592.09.592.456ZM31.888 46.203h-.865c-.046 0-.046.046-.046.046v1.961l-1.32-2.007-.046-.045h-.912c-.045 0-.045.045-.045.045v3.512c0 .046.045.046.045.046h.866c.046 0 .046-.046.046-.046v-1.961l1.366 1.961.046.046h.865c.046 0 .046-.046.046-.046v-3.512h-.046ZM34.348 46.203h-.865c-.046 0-.046.046-.046.046v3.512c0 .045.046.045.046.045h.865c.046 0 .046-.045.046-.045v-3.512c.045-.046 0-.046-.046-.046ZM39.45 49.715l-1.366-3.512-.046-.045H36.99c-.045 0-.045 0-.045.045l-1.367 3.512v.046l.046.045h.91c.046 0 .046 0 .046-.045l.228-.639h1.367l.228.639.045.045h.957c.045 0 .045 0 .045-.09 0 .045 0 .045 0 0Zm-1.594-1.414h-.729l.365-1.049.364 1.05ZM19.862.046C9.02.046.228 9.076.228 20.206c0 5.199 1.913 10.125 5.42 13.91l1.914-1.96c-2.824-3.24-4.373-7.39-4.373-11.768 0-9.533 7.425-17.287 16.627-17.287 9.157 0 16.628 7.754 16.628 17.287 0 4.333-1.55 8.438-4.373 11.676l2.004 2.052c3.508-3.74 5.421-8.711 5.421-13.91.046-11.13-8.792-20.16-19.634-20.16Z"/><path d="M19.816 4.06C11.161 4.06 4.1 11.402 4.1 20.387c0 4.105 1.458 8.027 4.145 11.037l1.458-1.459c.501-.547.592-1.505.182-2.098-.09-.183-2.687-4.15-2.687-7.708v-.548c.273-6.978 5.876-12.451 12.71-12.451 6.833 0 12.436 5.473 12.71 12.451v.548c-.137 3.603-2.597 7.48-2.689 7.617-.41.638-.318 1.642.183 2.189l1.366 1.368c2.642-3.01 4.055-6.933 4.055-10.992 0-8.94-7.061-16.283-15.717-16.283Z"/><path d="M13.302 18.609a1.926 1.926 0 0 1-1.913-1.916c0-1.049.865-1.915 1.913-1.915s1.913.866 1.913 1.915a1.926 1.926 0 0 1-1.913 1.916Zm4.328 5.2a1.926 1.926 0 0 1-1.914-1.916c0-1.05.866-1.916 1.914-1.916 1.047 0 1.913.867 1.913 1.916a1.926 1.926 0 0 1-1.913 1.916Zm8.837-7.116c1.048 0 1.914.867 1.914 1.916a1.926 1.926 0 0 1-1.914 1.916 1.926 1.926 0 0 1-1.913-1.916c.046-1.095.866-1.916 1.913-1.916Zm-4.51-5.655c1.048 0 1.914.866 1.914 1.915a1.926 1.926 0 0 1-1.914 1.916 1.926 1.926 0 0 1-1.913-1.916c0-1.049.866-1.915 1.913-1.915Z"/><path d="M13.302 14.778a1.926 1.926 0 0 0-1.913 1.915c0 1.05.865 1.916 1.913 1.916a1.926 1.926 0 0 0 1.913-1.916 1.926 1.926 0 0 0-1.913-1.915ZM14.669 19.293c-.046-.045-.091-.045-.137 0a2.9 2.9 0 0 1-2.46 0h-.137c-.045.046-.09.091-.09.137v8.073c.82.912 1.821 1.642 2.915 2.235V19.384a.098.098 0 0 0-.091-.09ZM17.63 19.977a1.926 1.926 0 0 0-1.914 1.916c0 1.049.866 1.916 1.914 1.916a1.926 1.926 0 0 0 1.913-1.916 1.926 1.926 0 0 0-1.913-1.916ZM19.042 24.493c-.046-.046-.091-.046-.137 0a2.9 2.9 0 0 1-2.46 0h-.136c-.046.045-.092.09-.092.137v5.7c.912.32 1.868.548 2.916.594v-6.34c-.046-.046-.046-.091-.091-.091ZM26.467 20.479a1.926 1.926 0 0 0 1.914-1.916 1.926 1.926 0 0 0-1.914-1.915 1.926 1.926 0 0 0-1.913 1.915c.046 1.095.866 1.916 1.913 1.916ZM27.88 21.163c-.046-.045-.092-.045-.137 0a2.9 2.9 0 0 1-2.46 0h-.137c-.09.046-.09.091-.09.137v8.347a11.55 11.55 0 0 0 2.915-2.235V21.3c-.046-.046-.046-.091-.091-.137ZM21.957 14.869a1.926 1.926 0 0 0 1.914-1.916 1.926 1.926 0 0 0-1.914-1.915 1.926 1.926 0 0 0-1.913 1.915c0 1.05.866 1.916 1.913 1.916ZM23.37 15.553c-.046-.046-.092-.046-.137 0a2.9 2.9 0 0 1-2.46 0h-.137c-.045.046-.09.091-.09.137v15.28c1.001-.046 1.958-.274 2.915-.548V15.69c-.046-.091-.046-.137-.091-.137Z"/></g></svg>